# xmcd
#
# Track frame offsets:
#	150
#	15491
#	29378
#	42204
#	56045
#	63508
#	80164
#	91404
#	103717
#	118326
#	131420
#	144968
#	156297
#	175526
#
# Disc length: 2498 seconds
#
# Revision: 1
# Processed by: cddbd v1.4PL0 Copyright (c) Steve Scherf et al.
# Submitted via: audiograbber 1.81.02
#
DISCID=b909c00e
DTITLE=Various Artist - пАЯАДОСИАЙА тЯАЦОУДИА цАЛОУ
DYEAR=1900
DGENRE=
TTITLE0=сглеяа цалос циметаи
TTITLE1=ламоука тгм еувоука соу
TTITLE2=с ауто то спити поу яхале
TTITLE3=мтими мтими
TTITLE4=сйопос тоу цалоу
TTITLE5=диаламти давтукиди
TTITLE6=г мужг
TTITLE7=г лаяциыяг
TTITLE8=ма лас фгсеи то феуцаяи
TTITLE9=тгс мужгс
TTITLE10=сам тис лаялаяойокымес
TTITLE11=ас еим г ыяа г йакг
TTITLE12=епитяапефиа тяацоудиа
TTITLE13=тгс йоумиас
EXTD=
EXTT0=
EXTT1=
EXTT2=
EXTT3=
EXTT4=
EXTT5=
EXTT6=
EXTT7=
EXTT8=
EXTT9=
EXTT10=
EXTT11=
EXTT12=
EXTT13=
PLAYORDER=
